<svg width="370" height="263" viewBox="0 0 370 263" fill="none" xmlns="http://www.w3.org/2000/svg">
<rect x="53.7305" y="-0.000488281" width="265.382" height="262.438" rx="25" fill="#367FA0"/>
<line x1="65.6875" y1="195.378" x2="307.156" y2="195.378" stroke="white" stroke-width="6.93493"/>
<path fill-rule="evenodd" clip-rule="evenodd" d="M188.27 50.3218C184.871 50.4165 181.564 51.4681 178.732 53.3607C175.76 55.3466 173.443 58.1693 172.075 61.4719C170.707 64.7744 170.35 68.4084 171.047 71.9143C171.744 75.4202 173.466 78.6406 175.993 81.1683C178.521 83.6959 181.741 85.4173 185.247 86.1146C186.248 86.3137 187.259 86.4267 188.27 86.4549V81.9342C185.765 81.841 183.332 81.0551 181.242 79.6591C179.013 78.1696 177.276 76.0526 176.25 73.5757C175.224 71.0988 174.955 68.3733 175.478 65.7438C176.002 63.1144 177.293 60.6991 179.188 58.8034C181.084 56.9076 183.499 55.6166 186.129 55.0936C186.838 54.9526 187.553 54.8691 188.27 54.8425V50.3218ZM170.7 52.5752C170.1 52.5752 169.525 52.337 169.101 51.9131L164.583 47.3947C164.159 46.9708 163.921 46.3959 163.921 45.7963C163.921 45.1968 164.159 44.6219 164.583 44.198C165.007 43.774 165.582 43.5359 166.181 43.5359C166.781 43.5359 167.356 43.774 167.78 44.198L172.298 48.7164C172.722 49.1403 172.96 49.7152 172.96 50.3147C172.96 50.9142 172.722 51.4892 172.298 51.9131C171.874 52.337 171.299 52.5752 170.7 52.5752ZM164.583 89.3819L169.101 84.8635C169.311 84.6536 169.56 84.4871 169.835 84.3735C170.109 84.2599 170.403 84.2015 170.7 84.2015C170.996 84.2015 171.29 84.2599 171.565 84.3735C171.839 84.4871 172.088 84.6536 172.298 84.8635C172.508 85.0734 172.674 85.3226 172.788 85.5969C172.902 85.8711 172.96 86.1651 172.96 86.4619C172.96 86.7588 172.902 87.0527 172.788 87.327C172.674 87.6012 172.508 87.8504 172.298 88.0603L167.78 92.5787C167.356 93.0026 166.781 93.2408 166.181 93.2408C165.582 93.2408 165.007 93.0026 164.583 92.5787C164.159 92.1548 163.921 91.5798 163.921 90.9803C163.921 90.3808 164.159 89.8058 164.583 89.3819ZM165.52 66.7908C165.943 67.2145 166.181 67.7891 166.181 68.3883C166.181 68.9875 165.943 69.5621 165.52 69.9858C165.096 70.4095 164.521 70.6475 163.922 70.6475H157.144C156.545 70.6475 155.971 70.4095 155.547 69.9858C155.123 69.5621 154.885 68.9875 154.885 68.3883C154.885 67.7891 155.123 67.2145 155.547 66.7908C155.971 66.3671 156.545 66.1291 157.144 66.1291H163.922C164.521 66.1291 165.096 66.3671 165.52 66.7908Z" fill="white"/>
<path fill-rule="evenodd" clip-rule="evenodd" d="M187.79 90.6653L187.82 90.6473V98.4844C187.82 99.3276 188.504 100.011 189.347 100.011C190.19 100.011 190.873 99.3276 190.873 98.4844V90.6473L196.085 93.7744C196.808 94.2082 197.746 93.9737 198.18 93.2508C198.613 92.5278 198.379 91.59 197.656 91.1562L190.873 87.0866V70.9605L204.496 78.3912L205.893 88.1669C206.012 89.0015 206.785 89.5815 207.62 89.4623C208.455 89.343 209.035 88.5697 208.915 87.7351L207.852 80.2917L215.675 84.7621C216.407 85.1804 217.34 84.9261 217.758 84.1941C218.177 83.462 217.922 82.5295 217.19 82.1111L209.803 77.8899L216.852 75.8759C217.663 75.6442 218.132 74.7993 217.901 73.9886C217.669 73.1779 216.824 72.7084 216.013 72.9401L206.081 75.7778L192.535 68.3888L206.081 60.9999L216.013 63.8376C216.824 64.0692 217.669 63.5998 217.901 62.7891C218.132 61.9784 217.663 61.1334 216.852 60.9018L209.803 58.8878L217.19 54.6665C217.922 54.2482 218.177 53.3157 217.758 52.5836C217.34 51.8516 216.407 51.5972 215.675 52.0155L207.852 56.486L208.915 49.0426C209.035 48.2079 208.455 47.4346 207.62 47.3154C206.785 47.1962 206.012 47.7761 205.893 48.6108L204.496 58.3865L190.873 65.8172V48.3555L197.438 45.7298C198.22 45.4167 198.601 44.5282 198.288 43.7454C197.975 42.9625 197.086 42.5818 196.304 42.8949L190.873 45.067V38.2932C190.873 37.4501 190.19 36.7666 189.347 36.7666C188.504 36.7666 187.82 37.4501 187.82 38.2932V45.067L187.79 45.055V48.3435L187.82 48.3555V65.8172L187.79 65.8008V70.9769L187.82 70.9605V87.0866L187.79 87.1046V90.6653Z" fill="white"/>
<mask id="path-6-outside-1_372_113" maskUnits="userSpaceOnUse" x="60.4468" y="122.986" width="253" height="52" fill="black">
<rect fill="white" x="60.4468" y="122.986" width="253" height="52"/>
<path d="M96.0339 158.846L93.3885 168.986H63.1552V167.475H64.5409C68.0051 167.475 67.8791 165.648 67.8162 162.814V161.302C67.6902 151.854 67.8162 142.469 67.8162 133.084C67.8162 128.675 67.3752 128.549 63.1552 128.486V126.975H92.6327L93.2625 136.171L91.7509 136.297C89.9243 129.998 87.3418 129.557 81.2952 129.557H74.1148V145.744H80.6023C85.3893 145.744 86.649 145.115 87.0899 140.139H88.4756V153.87H87.0899C86.523 149.272 86.1451 148.264 81.1692 148.264H74.1148V166.404H82.9958C89.8613 166.404 92.2548 165.27 94.6482 158.657L96.0339 158.846ZM145.777 157.082C145.777 164.703 139.731 169.679 132.361 169.679C129.968 169.679 128.204 169.301 125.937 168.545C124.74 168.168 123.543 167.601 122.22 167.601C120.961 167.601 119.701 168.86 118.819 169.679V154.688H120.331C121.842 160.987 125.433 165.963 132.424 165.963C136.644 165.963 140.423 163.381 140.423 158.846C140.423 154.437 136.203 152.421 132.865 150.657C129.401 148.831 125.685 147.193 122.661 144.737C120.205 142.784 119.008 140.013 119.008 136.926C119.008 130.124 124.677 126.282 131.038 126.282C132.802 126.282 134.566 126.597 136.266 127.038C137.526 127.353 138.849 127.856 140.171 127.856C141.305 127.856 142.439 127.478 143.51 127.038V137.934H141.998C141.368 135.667 140.801 134.029 139.164 132.202C137.274 130.061 134.377 128.99 131.542 128.99C127.889 128.99 124.614 130.88 124.614 134.911C124.614 138.438 127.763 140.202 130.472 141.713L137.274 145.43C142.124 148.075 145.777 151.098 145.777 157.082ZM205.712 168.986H191.792V167.475C193.052 167.475 195.004 167.601 195.004 165.837C195.004 164.766 194.437 163.57 194.06 162.625L190.973 154.688H175.92L173.211 161.617C172.77 162.814 172.014 164.514 172.014 165.774C172.014 167.412 174.471 167.412 175.605 167.475V168.986H164.96V167.475C165.779 167.412 166.472 167.286 167.164 166.845C168.676 165.837 169.81 162.373 170.503 160.672L184.612 125.337H185.619L199.539 159.412C200.358 161.428 201.177 163.444 202.185 165.333C203.13 167.034 203.885 167.16 205.712 167.475V168.986ZM189.965 152.106L183.415 135.667L176.927 152.106H189.965ZM256.743 126.975L256.176 137.745H254.664C254.475 136.297 254.475 134.785 254.034 133.336C253.026 129.872 249.877 129.557 246.791 129.557C245.342 129.557 243.893 129.62 242.445 129.62V162.436C242.445 166.971 242.382 167.475 247.106 167.475V168.986H231.485V167.475C234.823 167.475 236.146 167.601 236.146 163.947V129.62H234.193C231.548 129.62 228.399 129.62 226.131 131.069C223.801 132.517 223.297 135.226 222.856 137.745H221.344L221.848 126.975C223.801 127.101 225.753 127.164 227.706 127.164H248.995C251.578 127.164 254.16 127.101 256.743 126.975ZM310.329 158.846L307.684 168.986H277.451V167.475H278.836C282.301 167.475 282.175 165.648 282.112 162.814V161.302C281.986 151.854 282.112 142.469 282.112 133.084C282.112 128.675 281.671 128.549 277.451 128.486V126.975H306.928L307.558 136.171L306.046 136.297C304.22 129.998 301.637 129.557 295.591 129.557H288.41V145.744H294.898C299.685 145.744 300.944 145.115 301.385 140.139H302.771V153.87H301.385C300.819 149.272 300.441 148.264 295.465 148.264H288.41V166.404H297.291C304.157 166.404 306.55 165.27 308.944 158.657L310.329 158.846Z"/>
</mask>
<path d="M96.0339 158.846L93.3885 168.986H63.1552V167.475H64.5409C68.0051 167.475 67.8791 165.648 67.8162 162.814V161.302C67.6902 151.854 67.8162 142.469 67.8162 133.084C67.8162 128.675 67.3752 128.549 63.1552 128.486V126.975H92.6327L93.2625 136.171L91.7509 136.297C89.9243 129.998 87.3418 129.557 81.2952 129.557H74.1148V145.744H80.6023C85.3893 145.744 86.649 145.115 87.0899 140.139H88.4756V153.87H87.0899C86.523 149.272 86.1451 148.264 81.1692 148.264H74.1148V166.404H82.9958C89.8613 166.404 92.2548 165.27 94.6482 158.657L96.0339 158.846ZM145.777 157.082C145.777 164.703 139.731 169.679 132.361 169.679C129.968 169.679 128.204 169.301 125.937 168.545C124.74 168.168 123.543 167.601 122.22 167.601C120.961 167.601 119.701 168.86 118.819 169.679V154.688H120.331C121.842 160.987 125.433 165.963 132.424 165.963C136.644 165.963 140.423 163.381 140.423 158.846C140.423 154.437 136.203 152.421 132.865 150.657C129.401 148.831 125.685 147.193 122.661 144.737C120.205 142.784 119.008 140.013 119.008 136.926C119.008 130.124 124.677 126.282 131.038 126.282C132.802 126.282 134.566 126.597 136.266 127.038C137.526 127.353 138.849 127.856 140.171 127.856C141.305 127.856 142.439 127.478 143.51 127.038V137.934H141.998C141.368 135.667 140.801 134.029 139.164 132.202C137.274 130.061 134.377 128.99 131.542 128.99C127.889 128.99 124.614 130.88 124.614 134.911C124.614 138.438 127.763 140.202 130.472 141.713L137.274 145.43C142.124 148.075 145.777 151.098 145.777 157.082ZM205.712 168.986H191.792V167.475C193.052 167.475 195.004 167.601 195.004 165.837C195.004 164.766 194.437 163.57 194.06 162.625L190.973 154.688H175.92L173.211 161.617C172.77 162.814 172.014 164.514 172.014 165.774C172.014 167.412 174.471 167.412 175.605 167.475V168.986H164.96V167.475C165.779 167.412 166.472 167.286 167.164 166.845C168.676 165.837 169.81 162.373 170.503 160.672L184.612 125.337H185.619L199.539 159.412C200.358 161.428 201.177 163.444 202.185 165.333C203.13 167.034 203.885 167.16 205.712 167.475V168.986ZM189.965 152.106L183.415 135.667L176.927 152.106H189.965ZM256.743 126.975L256.176 137.745H254.664C254.475 136.297 254.475 134.785 254.034 133.336C253.026 129.872 249.877 129.557 246.791 129.557C245.342 129.557 243.893 129.62 242.445 129.62V162.436C242.445 166.971 242.382 167.475 247.106 167.475V168.986H231.485V167.475C234.823 167.475 236.146 167.601 236.146 163.947V129.62H234.193C231.548 129.62 228.399 129.62 226.131 131.069C223.801 132.517 223.297 135.226 222.856 137.745H221.344L221.848 126.975C223.801 127.101 225.753 127.164 227.706 127.164H248.995C251.578 127.164 254.16 127.101 256.743 126.975ZM310.329 158.846L307.684 168.986H277.451V167.475H278.836C282.301 167.475 282.175 165.648 282.112 162.814V161.302C281.986 151.854 282.112 142.469 282.112 133.084C282.112 128.675 281.671 128.549 277.451 128.486V126.975H306.928L307.558 136.171L306.046 136.297C304.22 129.998 301.637 129.557 295.591 129.557H288.41V145.744H294.898C299.685 145.744 300.944 145.115 301.385 140.139H302.771V153.87H301.385C300.819 149.272 300.441 148.264 295.465 148.264H288.41V166.404H297.291C304.157 166.404 306.55 165.27 308.944 158.657L310.329 158.846Z" fill="white"/>
<path d="M96.0339 158.846L98.1309 159.393L98.7477 157.028L96.3267 156.698L96.0339 158.846ZM93.3885 168.986V171.153H95.0629L95.4855 169.533L93.3885 168.986ZM63.1552 168.986H60.988V171.153H63.1552V168.986ZM63.1552 167.475V165.307H60.988V167.475H63.1552ZM67.8162 162.814H65.649V162.838L65.6495 162.862L67.8162 162.814ZM67.8162 161.302H69.9833V161.288L69.9831 161.273L67.8162 161.302ZM63.1552 128.486H60.988V130.621L63.1228 130.653L63.1552 128.486ZM63.1552 126.975V124.807H60.988V126.975H63.1552ZM92.6327 126.975L94.7948 126.826L94.6565 124.807H92.6327V126.975ZM93.2625 136.171L93.4425 138.33L95.5706 138.153L95.4246 136.022L93.2625 136.171ZM91.7509 136.297L89.6695 136.9L90.1634 138.603L91.9308 138.456L91.7509 136.297ZM74.1148 129.557V127.39H71.9476V129.557H74.1148ZM74.1148 145.744H71.9476V147.912H74.1148V145.744ZM87.0899 140.139V137.972H85.1063L84.9312 139.947L87.0899 140.139ZM88.4756 140.139H90.6428V137.972H88.4756V140.139ZM88.4756 153.87V156.037H90.6428V153.87H88.4756ZM87.0899 153.87L84.939 154.135L85.1735 156.037H87.0899V153.87ZM74.1148 148.264V146.097H71.9476V148.264H74.1148ZM74.1148 166.404H71.9476V168.571H74.1148V166.404ZM94.6482 158.657L94.9411 156.509L93.2062 156.273L92.6104 157.919L94.6482 158.657ZM93.9369 158.299L91.2915 168.439L95.4855 169.533L98.1309 159.393L93.9369 158.299ZM93.3885 166.819H63.1552V171.153H93.3885V166.819ZM65.3223 168.986V167.475H60.988V168.986H65.3223ZM63.1552 169.642H64.5409V165.307H63.1552V169.642ZM64.5409 169.642C65.567 169.642 66.5536 169.511 67.4194 169.118C68.3558 168.693 69.0343 168.011 69.4508 167.153C69.8308 166.371 69.9417 165.544 69.9816 164.865C70.0215 164.185 69.9976 163.43 69.9828 162.766L65.6495 162.862C65.6662 163.614 65.6817 164.151 65.6547 164.611C65.6276 165.071 65.5653 165.233 65.5516 165.261C65.5509 165.262 65.5545 165.254 65.5641 165.241C65.574 165.227 65.5869 165.212 65.6023 165.197C65.6367 165.163 65.6552 165.159 65.6265 165.172C65.5436 165.21 65.2468 165.307 64.5409 165.307V169.642ZM69.9833 162.814V161.302H65.649V162.814H69.9833ZM69.9831 161.273C69.8574 151.842 69.9833 142.51 69.9833 133.084H65.649C65.649 142.428 65.523 151.866 65.6492 161.331L69.9831 161.273ZM69.9833 133.084C69.9833 131.989 69.9594 130.986 69.818 130.152C69.6736 129.301 69.3606 128.325 68.5406 127.565C67.7411 126.825 66.7647 126.578 65.9666 126.465C65.171 126.353 64.2075 126.335 63.1875 126.319L63.1228 130.653C64.2129 130.669 64.887 130.69 65.361 130.757C65.8325 130.824 65.7576 130.895 65.5958 130.746C65.4135 130.577 65.4745 130.463 65.5446 130.877C65.6178 131.309 65.649 131.975 65.649 133.084H69.9833ZM65.3223 128.486V126.975H60.988V128.486H65.3223ZM63.1552 129.142H92.6327V124.807H63.1552V129.142ZM90.4706 127.123L91.1004 136.319L95.4246 136.022L94.7948 126.826L90.4706 127.123ZM93.0826 134.011L91.5709 134.137L91.9308 138.456L93.4425 138.33L93.0826 134.011ZM93.8323 135.693C92.8623 132.348 91.5356 129.98 89.151 128.666C86.951 127.455 84.2098 127.39 81.2952 127.39V131.724C84.4272 131.724 86.0006 131.88 87.0601 132.463C87.935 132.945 88.8129 133.946 89.6695 136.9L93.8323 135.693ZM81.2952 127.39H74.1148V131.724H81.2952V127.39ZM71.9476 129.557V145.744H76.2819V129.557H71.9476ZM74.1148 147.912H80.6023V143.577H74.1148V147.912ZM80.6023 147.912C81.8182 147.912 82.9493 147.874 83.9396 147.704C84.9471 147.532 85.9618 147.198 86.8347 146.496C88.5884 145.084 89.0311 142.784 89.2486 140.33L84.9312 139.947C84.7078 142.469 84.3002 142.972 84.1171 143.119C84.0215 143.196 83.7962 143.331 83.2074 143.432C82.6014 143.536 81.78 143.577 80.6023 143.577V147.912ZM87.0899 142.306H88.4756V137.972H87.0899V142.306ZM86.3084 140.139V153.87H90.6428V140.139H86.3084ZM88.4756 151.702H87.0899V156.037H88.4756V151.702ZM89.2408 153.604C89.101 152.471 88.9569 151.408 88.7227 150.508C88.4846 149.594 88.1038 148.637 87.3523 147.848C86.5768 147.034 85.609 146.607 84.5866 146.378C83.6035 146.158 82.4537 146.097 81.1692 146.097V150.431C82.3727 150.431 83.1361 150.495 83.641 150.608C84.1067 150.712 84.2017 150.825 84.2136 150.837C84.2494 150.875 84.3804 151.032 84.5281 151.6C84.6796 152.182 84.7954 152.97 84.939 154.135L89.2408 153.604ZM81.1692 146.097H74.1148V150.431H81.1692V146.097ZM71.9476 148.264V166.404H76.2819V148.264H71.9476ZM74.1148 168.571H82.9958V164.237H74.1148V168.571ZM82.9958 168.571C86.4342 168.571 89.3246 168.317 91.6572 166.842C94.0474 165.331 95.4505 162.808 96.6861 159.394L92.6104 157.919C91.4525 161.119 90.4621 162.47 89.3408 163.179C88.162 163.924 86.4229 164.237 82.9958 164.237V168.571ZM94.3554 160.804L95.7411 160.993L96.3267 156.698L94.9411 156.509L94.3554 160.804ZM125.937 168.545L126.622 166.489L126.606 166.484L126.589 166.479L125.937 168.545ZM118.819 169.679H116.652V174.649L120.294 171.267L118.819 169.679ZM118.819 154.688V152.521H116.652V154.688H118.819ZM120.331 154.688L122.438 154.183L122.039 152.521H120.331V154.688ZM132.865 150.657L133.877 148.741L133.876 148.74L132.865 150.657ZM122.661 144.737L124.028 143.055L124.019 143.047L124.01 143.04L122.661 144.737ZM136.266 127.038L135.722 129.135L135.732 129.138L135.741 129.14L136.266 127.038ZM143.51 127.038H145.677V123.802L142.685 125.034L143.51 127.038ZM143.51 137.934V140.101H145.677V137.934H143.51ZM141.998 137.934L139.91 138.514L140.351 140.101H141.998V137.934ZM139.164 132.202L137.539 133.636L137.544 133.643L137.55 133.649L139.164 132.202ZM130.472 141.713L129.415 143.606L129.424 143.61L129.433 143.615L130.472 141.713ZM137.274 145.43L136.235 147.331L136.236 147.332L137.274 145.43ZM143.61 157.082C143.61 163.303 138.747 167.512 132.361 167.512V171.846C140.714 171.846 147.944 166.103 147.944 157.082H143.61ZM132.361 167.512C130.26 167.512 128.733 167.193 126.622 166.489L125.251 170.601C127.676 171.409 129.676 171.846 132.361 171.846V167.512ZM126.589 166.479C126.332 166.398 126.07 166.305 125.758 166.195C125.46 166.089 125.118 165.969 124.763 165.86C124.051 165.641 123.188 165.433 122.22 165.433V169.768C122.575 169.768 122.972 169.844 123.488 170.003C123.748 170.082 124.012 170.175 124.316 170.282C124.607 170.385 124.943 170.504 125.284 170.612L126.589 166.479ZM122.22 165.433C120.904 165.433 119.814 166.071 119.116 166.571C118.392 167.089 117.731 167.732 117.345 168.091L120.294 171.267C120.789 170.807 121.199 170.411 121.64 170.095C122.107 169.76 122.277 169.768 122.22 169.768V165.433ZM120.986 169.679V154.688H116.652V169.679H120.986ZM118.819 156.856H120.331V152.521H118.819V156.856ZM118.223 155.194C119.033 158.566 120.442 161.788 122.763 164.193C125.14 166.655 128.351 168.13 132.424 168.13V163.796C129.505 163.796 127.426 162.783 125.882 161.183C124.282 159.525 123.141 157.11 122.438 154.183L118.223 155.194ZM132.424 168.13C134.956 168.13 137.465 167.358 139.384 165.778C141.345 164.163 142.591 161.775 142.591 158.846H138.256C138.256 160.451 137.613 161.622 136.629 162.432C135.603 163.277 134.113 163.796 132.424 163.796V168.13ZM142.591 158.846C142.591 155.826 141.101 153.668 139.315 152.121C137.611 150.645 135.454 149.574 133.877 148.741L131.853 152.574C133.614 153.504 135.237 154.323 136.477 155.397C137.636 156.401 138.256 157.456 138.256 158.846H142.591ZM133.876 148.74C130.219 146.812 126.831 145.332 124.028 143.055L121.295 146.419C124.538 149.054 128.582 150.849 131.854 152.574L133.876 148.74ZM124.01 143.04C122.119 141.538 121.175 139.417 121.175 136.926H116.841C116.841 140.609 118.29 144.031 121.313 146.433L124.01 143.04ZM121.175 136.926C121.175 134.189 122.29 132.138 124.01 130.73C125.774 129.286 128.273 128.449 131.038 128.449V124.115C127.443 124.115 123.926 125.198 121.265 127.376C118.561 129.59 116.841 132.862 116.841 136.926H121.175ZM131.038 128.449C132.553 128.449 134.122 128.72 135.722 129.135L136.81 124.94C135.01 124.473 133.052 124.115 131.038 124.115V128.449ZM135.741 129.14C136.016 129.209 136.302 129.29 136.629 129.383C136.945 129.473 137.301 129.574 137.664 129.666C138.385 129.849 139.247 130.024 140.171 130.024V125.689C139.773 125.689 139.312 125.612 138.727 125.464C138.436 125.391 138.143 125.307 137.815 125.214C137.498 125.124 137.146 125.024 136.792 124.935L135.741 129.14ZM140.171 130.024C141.75 130.024 143.213 129.504 144.335 129.042L142.685 125.034C141.665 125.453 140.86 125.689 140.171 125.689V130.024ZM141.343 127.038V137.934H145.677V127.038H141.343ZM143.51 135.767H141.998V140.101H143.51V135.767ZM144.086 137.354C143.429 134.99 142.753 132.96 140.777 130.756L137.55 133.649C138.849 135.098 139.307 136.344 139.91 138.514L144.086 137.354ZM140.789 130.769C138.413 128.076 134.876 126.823 131.542 126.823V131.157C133.878 131.157 136.135 132.046 137.539 133.636L140.789 130.769ZM131.542 126.823C129.376 126.823 127.14 127.379 125.391 128.718C123.571 130.111 122.447 132.232 122.447 134.911H126.781C126.781 133.558 127.295 132.719 128.025 132.16C128.827 131.546 130.056 131.157 131.542 131.157V126.823ZM122.447 134.911C122.447 137.423 123.605 139.279 125.034 140.638C126.393 141.931 128.11 142.877 129.415 143.606L131.528 139.821C130.124 139.038 128.913 138.346 128.021 137.498C127.198 136.715 126.781 135.926 126.781 134.911H122.447ZM129.433 143.615L136.235 147.331L138.313 143.528L131.511 139.811L129.433 143.615ZM136.236 147.332C138.592 148.617 140.424 149.875 141.675 151.386C142.87 152.828 143.61 154.59 143.61 157.082H147.944C147.944 153.59 146.858 150.848 145.013 148.621C143.226 146.464 140.806 144.888 138.312 143.527L136.236 147.332ZM205.712 168.986V171.153H207.879V168.986H205.712ZM191.792 168.986H189.625V171.153H191.792V168.986ZM191.792 167.475V165.307H189.625V167.475H191.792ZM194.06 162.625L192.04 163.41L192.043 163.42L192.047 163.43L194.06 162.625ZM190.973 154.688L192.993 153.903L192.456 152.521H190.973V154.688ZM175.92 154.688V152.521H174.44L173.901 153.899L175.92 154.688ZM173.211 161.617L171.193 160.828L171.185 160.848L171.178 160.868L173.211 161.617ZM175.605 167.475H177.772V165.425L175.725 165.311L175.605 167.475ZM175.605 168.986V171.153H177.772V168.986H175.605ZM164.96 168.986H162.793V171.153H164.96V168.986ZM164.96 167.475L164.794 165.314L162.793 165.468V167.475H164.96ZM167.164 166.845L168.328 168.673L168.347 168.661L168.367 168.648L167.164 166.845ZM170.503 160.672L172.51 161.49L172.513 161.483L172.515 161.476L170.503 160.672ZM184.612 125.337V123.17H183.143L182.599 124.533L184.612 125.337ZM185.619 125.337L187.626 124.517L187.075 123.17H185.619V125.337ZM199.539 159.412L201.547 158.597L201.546 158.593L199.539 159.412ZM202.185 165.333L200.273 166.353L200.281 166.369L200.29 166.386L202.185 165.333ZM205.712 167.475H207.879V165.649L206.08 165.339L205.712 167.475ZM189.965 152.106V154.273H193.162L191.979 151.304L189.965 152.106ZM183.415 135.667L185.428 134.864L183.405 129.788L181.399 134.871L183.415 135.667ZM176.927 152.106L174.911 151.311L173.742 154.273H176.927V152.106ZM205.712 166.819H191.792V171.153H205.712V166.819ZM193.959 168.986V167.475H189.625V168.986H193.959ZM191.792 169.642C192.241 169.642 193.455 169.697 194.479 169.397C195.048 169.231 195.758 168.908 196.324 168.248C196.92 167.554 197.171 166.703 197.171 165.837H192.837C192.837 165.853 192.845 165.647 193.035 165.425C193.196 165.238 193.339 165.215 193.262 165.237C193.181 165.261 193.017 165.289 192.731 165.302C192.434 165.315 192.17 165.307 191.792 165.307V169.642ZM197.171 165.837C197.171 164.95 196.942 164.118 196.724 163.481C196.512 162.862 196.222 162.196 196.072 161.82L192.047 163.43C192.275 163.999 192.458 164.403 192.624 164.887C192.783 165.351 192.837 165.654 192.837 165.837H197.171ZM196.079 161.839L192.993 153.903L188.953 155.474L192.04 163.41L196.079 161.839ZM190.973 152.521H175.92V156.856H190.973V152.521ZM173.901 153.899L171.193 160.828L175.23 162.406L177.938 155.478L173.901 153.899ZM171.178 160.868C171.002 161.344 170.645 162.225 170.391 162.987C170.133 163.763 169.847 164.778 169.847 165.774H174.182C174.182 165.51 174.274 165.045 174.503 164.357C174.738 163.655 174.979 163.087 175.245 162.366L171.178 160.868ZM169.847 165.774C169.847 166.804 170.265 167.679 170.938 168.307C171.541 168.869 172.255 169.148 172.798 169.301C173.845 169.596 175.06 169.615 175.484 169.638L175.725 165.311C175.376 165.291 175.1 165.284 174.756 165.254C174.427 165.225 174.164 165.183 173.971 165.129C173.758 165.069 173.787 165.037 173.894 165.137C173.96 165.199 174.043 165.299 174.104 165.438C174.166 165.578 174.182 165.701 174.182 165.774H169.847ZM173.437 167.475V168.986H177.772V167.475H173.437ZM175.605 166.819H164.96V171.153H175.605V166.819ZM167.127 168.986V167.475H162.793V168.986H167.127ZM165.126 169.635C166.076 169.562 167.19 169.397 168.328 168.673L166.001 165.016C165.753 165.174 165.482 165.261 164.794 165.314L165.126 169.635ZM168.367 168.648C169.085 168.169 169.627 167.498 170.028 166.899C170.444 166.277 170.802 165.586 171.106 164.931C171.69 163.673 172.222 162.197 172.51 161.49L168.496 159.854C168.091 160.848 167.709 161.954 167.175 163.106C166.92 163.655 166.668 164.125 166.425 164.49C166.166 164.876 166 165.016 165.962 165.042L168.367 168.648ZM172.515 161.476L186.624 126.141L182.599 124.533L168.49 159.869L172.515 161.476ZM184.612 127.504H185.619V123.17H184.612V127.504ZM183.613 126.157L197.533 160.232L201.546 158.593L187.626 124.517L183.613 126.157ZM197.532 160.228C198.343 162.225 199.203 164.347 200.273 166.353L204.097 164.313C203.151 162.54 202.374 160.631 201.547 158.597L197.532 160.228ZM200.29 166.386C200.873 167.434 201.557 168.285 202.604 168.839C203.51 169.319 204.546 169.473 205.344 169.61L206.08 165.339C205.601 165.256 205.29 165.202 205.032 165.14C204.789 165.081 204.683 165.035 204.632 165.008C204.607 164.995 204.442 164.933 204.079 164.281L200.29 166.386ZM203.545 167.475V168.986H207.879V167.475H203.545ZM191.979 151.304L185.428 134.864L181.402 136.469L187.952 152.908L191.979 151.304ZM181.399 134.871L174.911 151.311L178.943 152.902L185.431 136.462L181.399 134.871ZM176.927 154.273H189.965V149.939H176.927V154.273ZM256.743 126.975L258.907 127.088L259.033 124.693L256.637 124.81L256.743 126.975ZM256.176 137.745V139.912H258.232L258.34 137.859L256.176 137.745ZM254.664 137.745L252.515 138.026L252.761 139.912H254.664V137.745ZM254.034 133.336L251.953 133.942L251.957 133.954L251.961 133.967L254.034 133.336ZM242.445 129.62V127.453H240.277V129.62H242.445ZM247.106 167.475H249.273V165.307H247.106V167.475ZM247.106 168.986V171.153H249.273V168.986H247.106ZM231.485 168.986H229.318V171.153H231.485V168.986ZM231.485 167.475V165.307H229.318V167.475H231.485ZM236.146 129.62H238.313V127.453H236.146V129.62ZM226.131 131.069L227.275 132.909L227.287 132.902L227.298 132.895L226.131 131.069ZM222.856 137.745V139.912H224.677L224.991 138.119L222.856 137.745ZM221.344 137.745L219.18 137.644L219.073 139.912H221.344V137.745ZM221.848 126.975L221.988 124.812L219.786 124.67L219.683 126.873L221.848 126.975ZM254.578 126.861L254.011 137.631L258.34 137.859L258.907 127.088L254.578 126.861ZM256.176 135.578H254.664V139.912H256.176V135.578ZM256.813 137.465C256.719 136.746 256.693 136.202 256.599 135.311C256.514 134.521 256.387 133.623 256.107 132.705L251.961 133.967C252.122 134.498 252.215 135.081 252.289 135.77C252.351 136.359 252.42 137.296 252.515 138.026L256.813 137.465ZM256.115 132.731C255.411 130.31 253.865 128.871 251.986 128.131C250.268 127.454 248.338 127.39 246.791 127.39V131.724C248.329 131.724 249.517 131.817 250.398 132.164C251.117 132.447 251.65 132.898 251.953 133.942L256.115 132.731ZM246.791 127.39C246.039 127.39 245.291 127.406 244.571 127.422C243.842 127.438 243.142 127.453 242.445 127.453V131.787C243.196 131.787 243.944 131.771 244.665 131.755C245.393 131.739 246.094 131.724 246.791 131.724V127.39ZM240.277 129.62V162.436H244.612V129.62H240.277ZM240.277 162.436C240.277 163.515 240.271 164.531 240.352 165.35C240.432 166.157 240.625 167.183 241.336 168.039C242.088 168.947 243.106 169.297 244.002 169.458C244.873 169.614 245.932 169.642 247.106 169.642V165.307C245.917 165.307 245.213 165.272 244.767 165.192C244.346 165.116 244.494 165.058 244.672 165.272C244.807 165.436 244.721 165.485 244.665 164.923C244.611 164.372 244.612 163.624 244.612 162.436H240.277ZM244.938 167.475V168.986H249.273V167.475H244.938ZM247.106 166.819H231.485V171.153H247.106V166.819ZM233.652 168.986V167.475H229.318V168.986H233.652ZM231.485 169.642C232.265 169.642 233.087 169.651 233.787 169.598C234.481 169.545 235.345 169.416 236.138 168.965C238.022 167.894 238.313 165.821 238.313 163.947H233.979C233.979 164.77 233.899 165.161 233.842 165.322C233.815 165.4 233.855 165.277 233.996 165.197C234.042 165.171 233.949 165.239 233.457 165.276C232.969 165.314 232.374 165.307 231.485 165.307V169.642ZM238.313 163.947V129.62H233.979V163.947H238.313ZM236.146 127.453H234.193V131.787H236.146V127.453ZM234.193 127.453C232.894 127.453 231.306 127.45 229.743 127.652C228.178 127.854 226.472 128.279 224.964 129.242L227.298 132.895C228.058 132.41 229.06 132.11 230.298 131.95C231.539 131.79 232.848 131.787 234.193 131.787V127.453ZM224.987 129.228C221.703 131.27 221.127 135.053 220.721 137.372L224.991 138.119C225.467 135.399 225.899 133.765 227.275 132.909L224.987 129.228ZM222.856 135.578H221.344V139.912H222.856V135.578ZM223.509 137.846L224.013 127.076L219.683 126.873L219.18 137.644L223.509 137.846ZM221.709 129.137C223.708 129.266 225.707 129.331 227.706 129.331V124.996C225.8 124.996 223.894 124.935 221.988 124.812L221.709 129.137ZM227.706 129.331H248.995V124.996H227.706V129.331ZM248.995 129.331C251.613 129.331 254.231 129.267 256.848 129.139L256.637 124.81C254.09 124.934 251.542 124.996 248.995 124.996V129.331ZM310.329 158.846L312.426 159.393L313.043 157.028L310.622 156.698L310.329 158.846ZM307.684 168.986V171.153H309.358L309.781 169.533L307.684 168.986ZM277.451 168.986H275.284V171.153H277.451V168.986ZM277.451 167.475V165.307H275.284V167.475H277.451ZM282.112 162.814H279.944V162.838L279.945 162.862L282.112 162.814ZM282.112 161.302H284.279V161.288L284.279 161.273L282.112 161.302ZM277.451 128.486H275.284V130.621L277.418 130.653L277.451 128.486ZM277.451 126.975V124.807H275.284V126.975H277.451ZM306.928 126.975L309.09 126.826L308.952 124.807H306.928V126.975ZM307.558 136.171L307.738 138.33L309.866 138.153L309.72 136.022L307.558 136.171ZM306.046 136.297L303.965 136.9L304.459 138.603L306.226 138.456L306.046 136.297ZM288.41 129.557V127.39H286.243V129.557H288.41ZM288.41 145.744H286.243V147.912H288.41V145.744ZM301.385 140.139V137.972H299.402L299.227 139.947L301.385 140.139ZM302.771 140.139H304.938V137.972H302.771V140.139ZM302.771 153.87V156.037H304.938V153.87H302.771ZM301.385 153.87L299.235 154.135L299.469 156.037H301.385V153.87ZM288.41 148.264V146.097H286.243V148.264H288.41ZM288.41 166.404H286.243V168.571H288.41V166.404ZM308.944 158.657L309.237 156.509L307.502 156.273L306.906 157.919L308.944 158.657ZM308.232 158.299L305.587 168.439L309.781 169.533L312.426 159.393L308.232 158.299ZM307.684 166.819H277.451V171.153H307.684V166.819ZM279.618 168.986V167.475H275.284V168.986H279.618ZM277.451 169.642H278.836V165.307H277.451V169.642ZM278.836 169.642C279.863 169.642 280.849 169.511 281.715 169.118C282.651 168.693 283.33 168.011 283.746 167.153C284.126 166.371 284.237 165.544 284.277 164.865C284.317 164.185 284.293 163.43 284.278 162.766L279.945 162.862C279.962 163.614 279.977 164.151 279.95 164.611C279.923 165.071 279.861 165.233 279.847 165.261C279.846 165.262 279.85 165.254 279.86 165.241C279.869 165.227 279.882 165.212 279.898 165.197C279.932 165.163 279.951 165.159 279.922 165.172C279.839 165.21 279.542 165.307 278.836 165.307V169.642ZM284.279 162.814V161.302H279.944V162.814H284.279ZM284.279 161.273C284.153 151.842 284.279 142.51 284.279 133.084H279.944C279.944 142.428 279.818 151.866 279.945 161.331L284.279 161.273ZM284.279 133.084C284.279 131.989 284.255 130.986 284.113 130.152C283.969 129.301 283.656 128.325 282.836 127.565C282.037 126.825 281.06 126.578 280.262 126.465C279.467 126.353 278.503 126.335 277.483 126.319L277.418 130.653C278.508 130.669 279.183 130.69 279.657 130.757C280.128 130.824 280.053 130.895 279.891 130.746C279.709 130.577 279.77 130.463 279.84 130.877C279.913 131.309 279.944 131.975 279.944 133.084H284.279ZM279.618 128.486V126.975H275.284V128.486H279.618ZM277.451 129.142H306.928V124.807H277.451V129.142ZM304.766 127.123L305.396 136.319L309.72 136.022L309.09 126.826L304.766 127.123ZM307.378 134.011L305.866 134.137L306.226 138.456L307.738 138.33L307.378 134.011ZM308.128 135.693C307.158 132.348 305.831 129.98 303.446 128.666C301.246 127.455 298.505 127.39 295.591 127.39V131.724C298.723 131.724 300.296 131.88 301.356 132.463C302.231 132.945 303.108 133.946 303.965 136.9L308.128 135.693ZM295.591 127.39H288.41V131.724H295.591V127.39ZM286.243 129.557V145.744H290.577V129.557H286.243ZM288.41 147.912H294.898V143.577H288.41V147.912ZM294.898 147.912C296.114 147.912 297.245 147.874 298.235 147.704C299.243 147.532 300.257 147.198 301.13 146.496C302.884 145.084 303.327 142.784 303.544 140.33L299.227 139.947C299.003 142.469 298.596 142.972 298.413 143.119C298.317 143.196 298.092 143.331 297.503 143.432C296.897 143.536 296.075 143.577 294.898 143.577V147.912ZM301.385 142.306H302.771V137.972H301.385V142.306ZM300.604 140.139V153.87H304.938V140.139H300.604ZM302.771 151.702H301.385V156.037H302.771V151.702ZM303.536 153.604C303.396 152.471 303.252 151.408 303.018 150.508C302.78 149.594 302.399 148.637 301.648 147.848C300.872 147.034 299.905 146.607 298.882 146.378C297.899 146.158 296.749 146.097 295.465 146.097V150.431C296.668 150.431 297.432 150.495 297.937 150.608C298.402 150.712 298.497 150.825 298.509 150.837C298.545 150.875 298.676 151.032 298.824 151.6C298.975 152.182 299.091 152.97 299.235 154.135L303.536 153.604ZM295.465 146.097H288.41V150.431H295.465V146.097ZM286.243 148.264V166.404H290.577V148.264H286.243ZM288.41 168.571H297.291V164.237H288.41V168.571ZM297.291 168.571C300.73 168.571 303.62 168.317 305.953 166.842C308.343 165.331 309.746 162.808 310.982 159.394L306.906 157.919C305.748 161.119 304.758 162.47 303.636 163.179C302.457 163.924 300.718 164.237 297.291 164.237V168.571ZM308.651 160.804L310.037 160.993L310.622 156.698L309.237 156.509L308.651 160.804Z" fill="#367FA0" mask="url(#path-6-outside-1_372_113)"/>
<path d="M45.4218 146.708C45.4218 152.935 43.4555 158.768 38.8674 163.094C33.3618 168.272 26.8729 169.386 19.532 169.386H2.81838V167.813H3.99817C5.04687 167.813 6.35774 167.747 7.07872 166.961C7.86525 166.109 7.66862 161.783 7.66862 160.538C7.66862 151.165 7.66862 141.727 7.66862 132.354C7.66862 127.7 7.47199 127.307 2.81838 127.241V125.668H20.3841C27.5939 125.668 34.4105 126.52 39.7851 131.829C43.7832 135.762 45.4218 141.202 45.4218 146.708ZM38.4086 147.888C38.4086 135.107 31.1333 127.897 18.3522 127.897C16.9758 127.897 15.5994 127.962 14.223 128.093V157.129C14.223 158.506 14.0919 165.257 14.8784 165.978C15.665 166.764 18.8766 166.764 19.9908 166.764C32.1164 166.764 38.4086 159.817 38.4086 147.888Z" fill="white"/>
<path d="M368.528 169.386H351.028V167.813H352.207C352.928 167.813 355.55 167.813 355.55 166.633C355.55 165.912 353.518 163.815 352.994 163.225L337.919 146.38L350.569 133.599C351.421 132.681 354.436 129.863 354.436 128.683C354.436 127.11 351.683 127.241 350.634 127.241V125.668H364.988V127.241C363.677 127.438 362.301 127.569 361.121 128.159C359.286 129.077 356.73 131.371 355.222 132.813L343.556 143.889L360.4 162.504C361.777 164.011 363.219 165.519 364.923 166.699C366.168 167.551 367.02 167.747 368.528 167.813V169.386ZM342.507 169.386H326.252V167.813C330.512 167.813 331.102 167.616 331.102 163.225V131.502C331.102 127.241 330.119 127.241 326.252 127.241V125.668H342.507V127.241C341.327 127.241 338.967 127.176 338.181 128.159C337.525 129.011 337.657 132.485 337.657 133.599V164.142C337.657 167.878 339.099 167.813 342.507 167.813V169.386Z" fill="white"/>
</svg>
