<svg width="221" height="41" viewBox="0 0 221 41" fill="none" xmlns="http://www.w3.org/2000/svg">
<path d="M94.2634 25.7927L93.0353 30.5004H79V29.7987H79.6433C81.2515 29.7987 81.193 28.9507 81.1638 27.6349V26.9331C81.1053 22.5471 81.1638 18.1903 81.1638 13.8335C81.1638 11.7867 80.9591 11.7282 79 11.6989V10.9972H92.6845L92.9769 15.2662L92.2751 15.3247C91.4271 12.4007 90.2283 12.196 87.4212 12.196H84.0878V19.7108H87.0996C89.3218 19.7108 89.9066 19.4184 90.1113 17.1084H90.7546V23.4828H90.1113C89.8481 21.3482 89.6727 20.8804 87.3627 20.8804H84.0878V29.3016H88.2107C91.3979 29.3016 92.509 28.7753 93.6201 25.705L94.2634 25.7927ZM117.356 24.974C117.356 28.5121 114.549 30.8221 111.128 30.8221C110.017 30.8221 109.198 30.6466 108.145 30.2957C107.59 30.1203 107.034 29.8571 106.42 29.8571C105.835 29.8571 105.25 30.4419 104.841 30.8221V23.8629H105.543C106.245 26.7869 107.911 29.0969 111.157 29.0969C113.116 29.0969 114.871 27.898 114.871 25.7927C114.871 23.7459 112.911 22.8102 111.362 21.9915C109.753 21.1435 108.028 20.3833 106.625 19.2429C105.484 18.3365 104.929 17.0499 104.929 15.6171C104.929 12.4592 107.56 10.6755 110.514 10.6755C111.332 10.6755 112.151 10.8217 112.941 11.0264C113.525 11.1726 114.14 11.4065 114.754 11.4065C115.28 11.4065 115.806 11.2311 116.303 11.0264V16.085H115.602C115.309 15.0323 115.046 14.2721 114.286 13.4241C113.408 12.4299 112.063 11.9329 110.748 11.9329C109.052 11.9329 107.531 12.8101 107.531 14.6814C107.531 16.3189 108.993 17.1376 110.251 17.8394L113.408 19.5646C115.66 20.7927 117.356 22.1962 117.356 24.974ZM145.18 30.5004H138.718V29.7987C139.302 29.7987 140.209 29.8571 140.209 29.0384C140.209 28.5413 139.946 27.9858 139.77 27.5472L138.337 23.8629H131.349L130.092 27.0793C129.887 27.6349 129.536 28.4244 129.536 29.0092C129.536 29.7694 130.676 29.7694 131.203 29.7987V30.5004H126.261V29.7987C126.641 29.7694 126.963 29.7109 127.285 29.5063C127.986 29.0384 128.513 27.4302 128.834 26.6407L135.384 10.2369H135.852L142.314 26.0559C142.694 26.9916 143.074 27.9273 143.542 28.8045C143.981 29.594 144.332 29.6525 145.18 29.7987V30.5004ZM137.87 22.664L134.829 15.0323L131.817 22.664H137.87ZM168.87 10.9972L168.607 15.9973H167.905C167.817 15.3247 167.817 14.623 167.612 13.9504C167.145 12.3422 165.683 12.196 164.25 12.196C163.577 12.196 162.905 12.2253 162.232 12.2253V27.4594C162.232 29.5647 162.203 29.7987 164.396 29.7987V30.5004H157.144V29.7987C158.694 29.7987 159.308 29.8571 159.308 28.1612V12.2253H158.402C157.174 12.2253 155.712 12.2253 154.659 12.8978C153.577 13.5703 153.343 14.8276 153.138 15.9973H152.437L152.671 10.9972C153.577 11.0556 154.484 11.0849 155.39 11.0849H165.273C166.472 11.0849 167.671 11.0556 168.87 10.9972ZM193.747 25.7927L192.519 30.5004H178.483V29.7987H179.126C180.735 29.7987 180.676 28.9507 180.647 27.6349V26.9331C180.588 22.5471 180.647 18.1903 180.647 13.8335C180.647 11.7867 180.442 11.7282 178.483 11.6989V10.9972H192.168L192.46 15.2662L191.758 15.3247C190.91 12.4007 189.711 12.196 186.904 12.196H183.571V19.7108H186.583C188.805 19.7108 189.39 19.4184 189.594 17.1084H190.238V23.4828H189.594C189.331 21.3482 189.156 20.8804 186.846 20.8804H183.571V29.3016H187.694C190.881 29.3016 191.992 28.7753 193.103 25.705L193.747 25.7927Z" fill="#367FA0"/>
<path d="M70.7055 19.7653C70.7055 22.6559 69.7926 25.3639 67.6627 27.3722C65.1068 29.7759 62.0945 30.2932 58.6866 30.2932H50.9275V29.563H51.4752C51.9621 29.563 52.5706 29.5325 52.9053 29.1674C53.2705 28.7718 53.1792 26.7636 53.1792 26.1855C53.1792 21.8343 53.1792 17.4528 53.1792 13.1016C53.1792 10.9413 53.0879 10.7587 50.9275 10.7283V9.998H59.0821C62.4292 9.998 65.5936 10.3936 68.0887 12.8582C69.9448 14.6839 70.7055 17.2093 70.7055 19.7653ZM67.4497 20.313C67.4497 14.3796 64.0723 11.0325 58.1389 11.0325C57.4999 11.0325 56.8609 11.063 56.2219 11.1238V24.6033C56.2219 25.2422 56.1611 28.3763 56.5262 28.711C56.8913 29.0761 58.3823 29.0761 58.8996 29.0761C64.5287 29.0761 67.4497 25.8508 67.4497 20.313Z" fill="#367FA0"/>
<path d="M220.893 30.2932H212.769V29.563H213.316C213.651 29.563 214.868 29.563 214.868 29.0153C214.868 28.6805 213.925 27.7069 213.681 27.433L206.683 19.6131L212.556 13.6797C212.951 13.2538 214.351 11.9454 214.351 11.3977C214.351 10.6674 213.073 10.7283 212.586 10.7283V9.998H219.25V10.7283C218.641 10.8195 218.002 10.8804 217.454 11.1542C216.602 11.5802 215.416 12.6452 214.716 13.3146L209.3 18.4569L217.12 27.0983C217.759 27.7981 218.428 28.498 219.219 29.0457C219.797 29.4412 220.193 29.5325 220.893 29.563V30.2932ZM208.813 30.2932H201.267V29.563C203.245 29.563 203.519 29.4717 203.519 27.433V12.7061C203.519 10.7283 203.062 10.7283 201.267 10.7283V9.998H208.813V10.7283C208.265 10.7283 207.17 10.6978 206.805 11.1542C206.5 11.5498 206.561 13.1625 206.561 13.6797V27.859C206.561 29.5934 207.231 29.563 208.813 29.563V30.2932Z" fill="#367FA0"/>
<path fill-rule="evenodd" clip-rule="evenodd" d="M43.9951 20.4707L43.9953 20.4921L43.9951 20.5136V20.4707ZM21.6704 8.76464C19.4645 8.82618 17.3182 9.50882 15.4796 10.7373C13.5503 12.0264 12.0466 13.8587 11.1586 16.0025C10.2706 18.1462 10.0383 20.5052 10.491 22.781C10.9437 25.0568 12.061 27.1472 13.7018 28.788C15.3426 30.4287 17.433 31.5461 19.7088 31.9988C20.3582 32.128 21.0144 32.2014 21.6704 32.2197V29.2851C20.0448 29.2246 18.4653 28.7145 17.1091 27.8083C15.6621 26.8414 14.5343 25.4672 13.8684 23.8594C13.2024 22.2516 13.0281 20.4824 13.3676 18.7755C13.7072 17.0687 14.5452 15.5009 15.7758 14.2703C17.0063 13.0397 18.5742 12.2017 20.281 11.8622C20.7411 11.7707 21.2057 11.7165 21.6704 11.6992V8.76464ZM10.2656 10.2274C9.8764 10.2274 9.50318 10.0728 9.228 9.79764L6.29499 6.86462C6.01981 6.58944 5.86522 6.21622 5.86522 5.82707C5.86522 5.43791 6.01981 5.06469 6.29499 4.78951C6.57016 4.51433 6.94338 4.35974 7.33254 4.35974C7.7217 4.35974 8.09492 4.51433 8.3701 4.78951L11.3031 7.72253C11.5783 7.9977 11.7329 8.37092 11.7329 8.76008C11.7329 9.14924 11.5783 9.52246 11.3031 9.79764C11.0279 10.0728 10.6547 10.2274 10.2656 10.2274ZM6.29499 34.1197L9.228 31.1867C9.36426 31.0504 9.52601 30.9423 9.70404 30.8686C9.88206 30.7948 10.0729 30.7569 10.2656 30.7569C10.4583 30.7569 10.6491 30.7948 10.8271 30.8686C11.0051 30.9423 11.1669 31.0504 11.3031 31.1867C11.4394 31.3229 11.5475 31.4847 11.6212 31.6627C11.6949 31.8407 11.7329 32.0315 11.7329 32.2242C11.7329 32.4169 11.6949 32.6077 11.6212 32.7857C11.5475 32.9638 11.4394 33.1255 11.3031 33.2618L8.3701 36.1948C8.09492 36.47 7.7217 36.6246 7.33254 36.6246C6.94338 36.6246 6.57016 36.47 6.29499 36.1948C6.01981 35.9196 5.86522 35.5464 5.86522 35.1572C5.86522 34.7681 6.01981 34.3949 6.29499 34.1197ZM6.90301 19.4552C7.17804 19.7302 7.33254 20.1032 7.33254 20.4921C7.33254 20.8811 7.17804 21.2541 6.90301 21.5291C6.62799 21.8042 6.25498 21.9587 5.86603 21.9587H1.46651C1.07757 21.9587 0.704554 21.8042 0.42953 21.5291C0.154507 21.2541 0 20.8811 0 20.4921C0 20.1032 0.154507 19.7302 0.42953 19.4552C0.704554 19.1801 1.07757 19.0256 1.46651 19.0256H5.86603C6.25498 19.0256 6.62799 19.1801 6.90301 19.4552Z" fill="#367FA0"/>
<path fill-rule="evenodd" clip-rule="evenodd" d="M21.085 40.2323C21.3257 40.498 21.6735 40.6649 22.0603 40.6649C22.7869 40.6649 23.3759 40.0759 23.3759 39.3493V35.073L26.0976 36.706C26.7207 37.0799 27.5289 36.8778 27.9027 36.2547C28.2766 35.6317 28.0745 34.8235 27.4515 34.4497L23.3759 32.0044V22.7084L31.2225 26.9884L32.0721 32.9353C32.1749 33.6547 32.8413 34.1545 33.5606 34.0517C34.2799 33.949 34.7797 33.2825 34.677 32.5632L34.1146 28.6262L38.3789 31.063C39.0098 31.4235 39.8135 31.2043 40.174 30.5735C40.5345 29.9426 40.3153 29.1389 39.6844 28.7784L35.7959 26.5564L39.3931 25.5286C40.0918 25.329 40.4963 24.6008 40.2967 23.9021C40.0971 23.2035 39.3689 22.7989 38.6703 22.9985L32.5885 24.7362L24.8078 20.4921L32.5885 16.2481L38.6703 17.9857C39.3689 18.1854 40.0971 17.7808 40.2967 17.0821C40.4963 16.3835 40.0918 15.6553 39.3931 15.4557L35.7959 14.4279L39.6844 12.2059C40.3153 11.8454 40.5345 11.0417 40.174 10.4108C39.8135 9.77994 39.0098 9.56075 38.3789 9.92125L34.1146 12.358L34.677 8.42106C34.7797 7.70174 34.2799 7.03532 33.5606 6.93256C32.8413 6.8298 32.1749 7.32962 32.0721 8.04893L31.2225 13.9959L23.3759 18.2759V8.18288L27.2632 6.62798C27.9378 6.35812 28.266 5.59245 27.9961 4.9178C27.7262 4.24315 26.9606 3.915 26.2859 4.18486L23.3759 5.34886V1.635C23.3759 0.908377 22.7869 0.319336 22.0603 0.319336C21.6735 0.319336 21.3257 0.486239 21.085 0.751952V40.2323Z" fill="#367FA0"/>
</svg>
